<svg xmlns="http://www.w3.org/2000/svg" width="250" height="27"><path d="M6 21H3V6h3V3h12v3h3v3h-6V6H9v15h6v-3h6v3h-3v3H6zM27 21h-3v-9h3V9h12v3h3v9h-3v3H27zm9 0v-9h-6v9zM45 9h15v3h3v12h-6V12h-6v12h-6zM69 18h-3V9h6v6h3v-3h3v3h3V9h6v9h-3v6h-6v-3h-3v3h-6zM93 21h-3v-3h3v-3h9v-3h-9V9h12v3h3v12H93zm9 0v-3h-6v3zM129 21h-3v3h-3v3h-12v-3h9v-3h-6v-3h-3V9h6v9h6V9h6zM132 9h3V6h3V3h6v3h-3v3h-3v3h-6zM165 12h-12v3h9v3h3v3h-3v3h-15v-3h12v-3h-9v-3h-3v-3h3V9h15zM184 21h12v3h-18V3h6zM199 21h3v-6h-3v-3h9v9h3v3h-12zm3-15h6v3h-6zM217 15h-3v-3h3V9h3V6h9v3h-6v3h6v3h-6v9h-6zM247 12h3v6h-12v3h9v3h-12v-3h-3v-9h3V9h12zm-9 0v3h6v-3z" fill="#0001e3"/><path d="M3 18H0V3h3V0h12v3h3v3h-6V3H6v15h6v-3h6v3h-3v3H3zM24 18h-3V9h3V6h12v3h3v9h-3v3H24zm9 0V9h-6v9zM42 6h15v3h3v12h-6V9h-6v12h-6zM66 15h-3V6h6v6h3V9h3v3h3V6h6v9h-3v6h-6v-3h-3v3h-6zM90 18h-3v-3h3v-3h9V9h-9V6h12v3h3v12H90zm9 0v-3h-6v3zM126 18h-3v3h-3v3h-12v-3h9v-3h-6v-3h-3V6h6v9h6V6h6zM129 6h3V3h3V0h6v3h-3v3h-3v3h-6zM162 9h-12v3h9v3h3v3h-3v3h-15v-3h12v-3h-9v-3h-3V9h3V6h15zM181 18h12v3h-18V0h6zM196 18h3v-6h-3V9h9v9h3v3h-12zm3-15h6v3h-6zM214 12h-3V9h3V6h3V3h9v3h-6v3h6v3h-6v9h-6zM244 9h3v6h-12v3h9v3h-12v-3h-3V9h3V6h12zm-9 0v3h6V9z" fill="#24ffda"/></svg>