<svg xmlns="http://www.w3.org/2000/svg" width="250" height="27" viewBox="0 0 250 27"><title>C64_Title</title><path d="M6,21H3V6H6V3H18V6h3V9H15V6H9V21h6V18h6v3H18v3H6Z" fill="#0001e3"/><path d="M27,21H24V12h3V9H39v3h3v9H39v3H27Zm9,0V12H30v9Z" fill="#0001e3"/><path d="M45,9H60v3h3V24H57V12H51V24H45Z" fill="#0001e3"/><path d="M69,18H66V9h6v6h3V12h3v3h3V9h6v9H84v6H78V21H75v3H69Z" fill="#0001e3"/><path d="M93,21H90V18h3V15h9V12H93V9h12v3h3V24H93Zm9,0V18H96v3Z" fill="#0001e3"/><path d="M129,21h-3v3h-3v3H111V24h9V21h-6V18h-3V9h6v9h6V9h6Z" fill="#0001e3"/><path d="M132,9h3V6h3V3h6V6h-3V9h-3v3h-6Z" fill="#0001e3"/><path d="M165,12H153v3h9v3h3v3h-3v3H147V21h12V18h-9V15h-3V12h3V9h15Z" fill="#0001e3"/><path d="M184,21h12v3H178V3h6Z" fill="#0001e3"/><path d="M199,21h3V15h-3V12h9v9h3v3H199Zm3-15h6V9h-6Z" fill="#0001e3"/><path d="M217,15h-3V12h3V9h3V6h9V9h-6v3h6v3h-6v9h-6Z" fill="#0001e3"/><path d="M247,12h3v6H238v3h9v3H235V21h-3V12h3V9h12Zm-9,0v3h6V12Z" fill="#0001e3"/><path d="M3,18H0V3H3V0H15V3h3V6H12V3H6V18h6V15h6v3H15v3H3Z" fill="#24ffda"/><path d="M24,18H21V9h3V6H36V9h3v9H36v3H24Zm9,0V9H27v9Z" fill="#24ffda"/><path d="M42,6H57V9h3V21H54V9H48V21H42Z" fill="#24ffda"/><path d="M66,15H63V6h6v6h3V9h3v3h3V6h6v9H81v6H75V18H72v3H66Z" fill="#24ffda"/><path d="M90,18H87V15h3V12h9V9H90V6h12V9h3V21H90Zm9,0V15H93v3Z" fill="#24ffda"/><path d="M126,18h-3v3h-3v3H108V21h9V18h-6V15h-3V6h6v9h6V6h6Z" fill="#24ffda"/><path d="M129,6h3V3h3V0h6V3h-3V6h-3V9h-6Z" fill="#24ffda"/><path d="M162,9H150v3h9v3h3v3h-3v3H144V18h12V15h-9V12h-3V9h3V6h15Z" fill="#24ffda"/><path d="M181,18h12v3H175V0h6Z" fill="#24ffda"/><path d="M196,18h3V12h-3V9h9v9h3v3H196Zm3-15h6V6h-6Z" fill="#24ffda"/><path d="M214,12h-3V9h3V6h3V3h9V6h-6V9h6v3h-6v9h-6Z" fill="#24ffda"/><path d="M244,9h3v6H235v3h9v3H232V18h-3V9h3V6h12Zm-9,0v3h6V9Z" fill="#24ffda"/></svg>