<svg xmlns="http://www.w3.org/2000/svg" width="285.5" height="45.5" viewBox="0 0 285.5 45.5"><title>Title</title><rect x="0.25" y="0.25" width="5" height="5" fill="#5effe3" stroke="blue" stroke-width="0.5"/><rect x="0.25" y="5.25" width="5" height="5" fill="#5effe3" stroke="blue" stroke-width="0.5"/><rect x="0.25" y="10.25" width="5" height="5" fill="#5effe3" stroke="blue" stroke-width="0.5"/><rect x="0.25" y="15.25" width="5" height="5" fill="#5effe3" stroke="blue" stroke-width="0.5"/><rect x="0.25" y="20.25" width="5" height="5" fill="#5effe3" stroke="blue" stroke-width="0.5"/><rect x="0.25" y="25.25" width="5" height="5" fill="#5effe3" stroke="blue" stroke-width="0.5"/><rect x="0.25" y="30.25" width="5" height="5" fill="#5effe3" stroke="blue" stroke-width="0.5"/><rect x="25.25" y="15.25" width="5" height="5" fill="#5effe3" stroke="blue" stroke-width="0.5"/><rect x="25.25" y="25.25" width="5" height="5" fill="#5effe3" stroke="blue" stroke-width="0.5"/><rect x="40.25" y="15.25" width="5" height="5" fill="#5effe3" stroke="blue" stroke-width="0.5"/><rect x="40.25" y="25.25" width="5" height="5" fill="#5effe3" stroke="blue" stroke-width="0.5"/><rect x="5.25" y="0.25" width="5" height="5" fill="#5effe3" stroke="blue" stroke-width="0.5"/><rect x="10.25" y="0.25" width="5" height="5" fill="#5effe3" stroke="blue" stroke-width="0.5"/><rect x="15.25" y="0.25" width="5" height="5" fill="#5effe3" stroke="blue" stroke-width="0.5"/><rect x="5.25" y="30.25" width="5" height="5" fill="#5effe3" stroke="blue" stroke-width="0.5"/><rect x="10.25" y="30.25" width="5" height="5" fill="#5effe3" stroke="blue" stroke-width="0.5"/><rect x="15.25" y="30.25" width="5" height="5" fill="#5effe3" stroke="blue" stroke-width="0.5"/><rect x="30.25" y="10.25" width="5" height="5" fill="#5effe3" stroke="blue" stroke-width="0.5"/><rect x="35.25" y="10.25" width="5" height="5" fill="#5effe3" stroke="blue" stroke-width="0.5"/><rect x="30.25" y="30.25" width="5" height="5" fill="#5effe3" stroke="blue" stroke-width="0.5"/><rect x="35.25" y="30.25" width="5" height="5" fill="#5effe3" stroke="blue" stroke-width="0.5"/><rect x="50.25" y="10.25" width="5" height="5" fill="#5effe3" stroke="blue" stroke-width="0.5"/><rect x="50.25" y="15.25" width="5" height="5" fill="#5effe3" stroke="blue" stroke-width="0.5"/><rect x="50.25" y="25.25" width="5" height="5" fill="#5effe3" stroke="blue" stroke-width="0.5"/><rect x="50.25" y="30.25" width="5" height="5" fill="#5effe3" stroke="blue" stroke-width="0.5"/><rect x="65.25" y="15.25" width="5" height="5" fill="#5effe3" stroke="blue" stroke-width="0.5"/><rect x="65.25" y="25.25" width="5" height="5" fill="#5effe3" stroke="blue" stroke-width="0.5"/><rect x="65.25" y="30.25" width="5" height="5" fill="#5effe3" stroke="blue" stroke-width="0.5"/><rect x="55.25" y="10.25" width="5" height="5" fill="#5effe3" stroke="blue" stroke-width="0.5"/><rect x="60.25" y="10.25" width="5" height="5" fill="#5effe3" stroke="blue" stroke-width="0.5"/><rect x="75.25" y="25.25" width="5" height="5" fill="#5effe3" stroke="blue" stroke-width="0.5"/><rect x="75.25" y="15.25" width="5" height="5" fill="#5effe3" stroke="blue" stroke-width="0.5"/><rect x="75.25" y="10.25" width="5" height="5" fill="#5effe3" stroke="blue" stroke-width="0.5"/><rect x="90.25" y="30.25" width="5" height="5" fill="#5effe3" stroke="blue" stroke-width="0.5"/><rect x="95.25" y="25.25" width="5" height="5" fill="#5effe3" stroke="blue" stroke-width="0.5"/><rect x="95.25" y="15.25" width="5" height="5" fill="#5effe3" stroke="blue" stroke-width="0.5"/><rect x="95.25" y="10.25" width="5" height="5" fill="#5effe3" stroke="blue" stroke-width="0.5"/><rect x="80.25" y="30.25" width="5" height="5" fill="#5effe3" stroke="blue" stroke-width="0.5"/><rect x="85.25" y="25.25" width="5" height="5" fill="#5effe3" stroke="blue" stroke-width="0.5"/><rect x="85.25" y="15.25" width="5" height="5" fill="#5effe3" stroke="blue" stroke-width="0.5"/><rect x="130.25" y="25.25" width="5" height="5" fill="#5effe3" stroke="blue" stroke-width="0.5"/><rect x="130.25" y="15.25" width="5" height="5" fill="#5effe3" stroke="blue" stroke-width="0.5"/><rect x="130.25" y="10.25" width="5" height="5" fill="#5effe3" stroke="blue" stroke-width="0.5"/><rect x="140.25" y="30.25" width="5" height="5" fill="#5effe3" stroke="blue" stroke-width="0.5"/><rect x="145.25" y="25.25" width="5" height="5" fill="#5effe3" stroke="blue" stroke-width="0.5"/><rect x="145.25" y="15.25" width="5" height="5" fill="#5effe3" stroke="blue" stroke-width="0.5"/><rect x="145.25" y="10.25" width="5" height="5" fill="#5effe3" stroke="blue" stroke-width="0.5"/><rect x="155.25" y="15.25" width="5" height="5" fill="#5effe3" stroke="blue" stroke-width="0.5"/><rect x="155.25" y="10.25" width="5" height="5" fill="#5effe3" stroke="blue" stroke-width="0.5"/><rect x="135.25" y="30.25" width="5" height="5" fill="#5effe3" stroke="blue" stroke-width="0.5"/><rect x="140.25" y="40.25" width="5" height="5" fill="#5effe3" stroke="blue" stroke-width="0.5"/><rect x="135.25" y="40.25" width="5" height="5" fill="#5effe3" stroke="blue" stroke-width="0.5"/><rect x="105.25" y="15.25" width="5" height="5" fill="#5effe3" stroke="blue" stroke-width="0.5"/><rect x="105.25" y="25.25" width="5" height="5" fill="#5effe3" stroke="blue" stroke-width="0.5"/><rect x="120.25" y="10.25" width="5" height="5" fill="#5effe3" stroke="blue" stroke-width="0.5"/><rect x="120.25" y="15.25" width="5" height="5" fill="#5effe3" stroke="blue" stroke-width="0.5"/><rect x="25.25" y="20.25" width="5" height="5" fill="#5effe3" stroke="blue" stroke-width="0.5"/><rect x="40.25" y="20.25" width="5" height="5" fill="#5effe3" stroke="blue" stroke-width="0.5"/><rect x="50.25" y="20.25" width="5" height="5" fill="#5effe3" stroke="blue" stroke-width="0.5"/><rect x="65.25" y="20.25" width="5" height="5" fill="#5effe3" stroke="blue" stroke-width="0.5"/><rect x="75.25" y="20.25" width="5" height="5" fill="#5effe3" stroke="blue" stroke-width="0.5"/><rect x="95.25" y="20.25" width="5" height="5" fill="#5effe3" stroke="blue" stroke-width="0.5"/><rect x="85.25" y="20.25" width="5" height="5" fill="#5effe3" stroke="blue" stroke-width="0.5"/><rect x="130.25" y="20.25" width="5" height="5" fill="#5effe3" stroke="blue" stroke-width="0.5"/><rect x="145.25" y="20.25" width="5" height="5" fill="#5effe3" stroke="blue" stroke-width="0.5"/><rect x="105.25" y="20.25" width="5" height="5" fill="#5effe3" stroke="blue" stroke-width="0.5"/><rect x="120.25" y="20.25" width="5" height="5" fill="#5effe3" stroke="blue" stroke-width="0.5"/><rect x="120.25" y="25.25" width="5" height="5" fill="#5effe3" stroke="blue" stroke-width="0.5"/><rect x="120.25" y="30.25" width="5" height="5" fill="#5effe3" stroke="blue" stroke-width="0.5"/><rect x="110.25" y="10.25" width="5" height="5" fill="#5effe3" stroke="blue" stroke-width="0.5"/><rect x="115.25" y="10.25" width="5" height="5" fill="#5effe3" stroke="blue" stroke-width="0.5"/><rect x="110.25" y="30.25" width="5" height="5" fill="#5effe3" stroke="blue" stroke-width="0.5"/><rect x="115.25" y="30.25" width="5" height="5" fill="#5effe3" stroke="blue" stroke-width="0.5"/><rect x="265.25" y="15.25" width="5" height="5" fill="#5effe3" stroke="blue" stroke-width="0.5"/><rect x="265.25" y="25.25" width="5" height="5" fill="#5effe3" stroke="blue" stroke-width="0.5"/><rect x="280.25" y="15.25" width="5" height="5" fill="#5effe3" stroke="blue" stroke-width="0.5"/><rect x="265.25" y="20.25" width="5" height="5" fill="#5effe3" stroke="blue" stroke-width="0.5"/><rect x="270.25" y="20.25" width="5" height="5" fill="#5effe3" stroke="blue" stroke-width="0.5"/><rect x="275.25" y="20.25" width="5" height="5" fill="#5effe3" stroke="blue" stroke-width="0.5"/><rect x="280.25" y="30.25" width="5" height="5" fill="#5effe3" stroke="blue" stroke-width="0.5"/><rect x="270.25" y="10.25" width="5" height="5" fill="#5effe3" stroke="blue" stroke-width="0.5"/><rect x="275.25" y="10.25" width="5" height="5" fill="#5effe3" stroke="blue" stroke-width="0.5"/><rect x="270.25" y="30.25" width="5" height="5" fill="#5effe3" stroke="blue" stroke-width="0.5"/><rect x="275.25" y="30.25" width="5" height="5" fill="#5effe3" stroke="blue" stroke-width="0.5"/><rect x="145.25" y="40.25" width="5" height="5" fill="#5effe3" stroke="blue" stroke-width="0.5"/><rect x="145.25" y="35.25" width="5" height="5" fill="#5effe3" stroke="blue" stroke-width="0.5"/><rect x="145.25" y="30.25" width="5" height="5" fill="#5effe3" stroke="blue" stroke-width="0.5"/><rect x="165.25" y="15.25" width="5" height="5" fill="#5effe3" stroke="blue" stroke-width="0.5"/><rect x="180.25" y="10.25" width="5" height="5" fill="#5effe3" stroke="blue" stroke-width="0.5"/><rect x="180.25" y="25.25" width="5" height="5" fill="#5effe3" stroke="blue" stroke-width="0.5"/><rect x="170.25" y="10.25" width="5" height="5" fill="#5effe3" stroke="blue" stroke-width="0.5"/><rect x="175.25" y="10.25" width="5" height="5" fill="#5effe3" stroke="blue" stroke-width="0.5"/><rect x="170.25" y="20.25" width="5" height="5" fill="#5effe3" stroke="blue" stroke-width="0.5"/><rect x="175.25" y="20.25" width="5" height="5" fill="#5effe3" stroke="blue" stroke-width="0.5"/><rect x="175.25" y="30.25" width="5" height="5" fill="#5effe3" stroke="blue" stroke-width="0.5"/><rect x="165.25" y="30.25" width="5" height="5" fill="#5effe3" stroke="blue" stroke-width="0.5"/><rect x="170.25" y="30.25" width="5" height="5" fill="#5effe3" stroke="blue" stroke-width="0.5"/><rect x="245.25" y="10.25" width="5" height="5" fill="#5effe3" stroke="blue" stroke-width="0.5"/><rect x="245.25" y="15.25" width="5" height="5" fill="#5effe3" stroke="blue" stroke-width="0.5"/><rect x="245.25" y="20.25" width="5" height="5" fill="#5effe3" stroke="blue" stroke-width="0.5"/><rect x="245.25" y="25.25" width="5" height="5" fill="#5effe3" stroke="blue" stroke-width="0.5"/><rect x="245.25" y="30.25" width="5" height="5" fill="#5effe3" stroke="blue" stroke-width="0.5"/><rect x="250.25" y="5.25" width="5" height="5" fill="#5effe3" stroke="blue" stroke-width="0.5"/><rect x="255.25" y="10.25" width="5" height="5" fill="#5effe3" stroke="blue" stroke-width="0.5"/><rect x="240.25" y="20.25" width="5" height="5" fill="#5effe3" stroke="blue" stroke-width="0.5"/><rect x="250.25" y="20.25" width="5" height="5" fill="#5effe3" stroke="blue" stroke-width="0.5"/><rect x="205.25" y="0.25" width="5" height="5" fill="#5effe3" stroke="blue" stroke-width="0.5"/><rect x="205.25" y="5.25" width="5" height="5" fill="#5effe3" stroke="blue" stroke-width="0.5"/><rect x="205.25" y="10.25" width="5" height="5" fill="#5effe3" stroke="blue" stroke-width="0.5"/><rect x="205.25" y="15.25" width="5" height="5" fill="#5effe3" stroke="blue" stroke-width="0.5"/><rect x="205.25" y="20.25" width="5" height="5" fill="#5effe3" stroke="blue" stroke-width="0.5"/><rect x="205.25" y="25.25" width="5" height="5" fill="#5effe3" stroke="blue" stroke-width="0.5"/><rect x="205.25" y="30.25" width="5" height="5" fill="#5effe3" stroke="blue" stroke-width="0.5"/><rect x="210.25" y="30.25" width="5" height="5" fill="#5effe3" stroke="blue" stroke-width="0.5"/><rect x="215.25" y="30.25" width="5" height="5" fill="#5effe3" stroke="blue" stroke-width="0.5"/><rect x="220.25" y="30.25" width="5" height="5" fill="#5effe3" stroke="blue" stroke-width="0.5"/><rect x="230.25" y="10.25" width="5" height="5" fill="#5effe3" stroke="blue" stroke-width="0.5"/><rect x="230.25" y="25.25" width="5" height="5" fill="#5effe3" stroke="blue" stroke-width="0.5"/><rect x="230.25" y="30.25" width="5" height="5" fill="#5effe3" stroke="blue" stroke-width="0.5"/><rect x="230.25" y="20.25" width="5" height="5" fill="#5effe3" stroke="blue" stroke-width="0.5"/></svg>