<svg xmlns="http://www.w3.org/2000/svg" width="285.5" height="45.5"><path fill="#5effe3" stroke="#00f" stroke-width=".5" d="M.25.25h5v5h-5zM.25 5.25h5v5h-5zM.25 10.25h5v5h-5zM.25 15.25h5v5h-5zM.25 20.25h5v5h-5zM.25 25.25h5v5h-5zM.25 30.25h5v5h-5zM25.25 15.25h5v5h-5zM25.25 25.25h5v5h-5zM40.25 15.25h5v5h-5zM40.25 25.25h5v5h-5zM5.25.25h5v5h-5zM10.25.25h5v5h-5zM15.25.25h5v5h-5zM5.25 30.25h5v5h-5zM10.25 30.25h5v5h-5zM15.25 30.25h5v5h-5zM30.25 10.25h5v5h-5zM35.25 10.25h5v5h-5zM30.25 30.25h5v5h-5zM35.25 30.25h5v5h-5zM50.25 10.25h5v5h-5zM50.25 15.25h5v5h-5zM50.25 25.25h5v5h-5zM50.25 30.25h5v5h-5zM65.25 15.25h5v5h-5zM65.25 25.25h5v5h-5zM65.25 30.25h5v5h-5zM55.25 10.25h5v5h-5zM60.25 10.25h5v5h-5zM75.25 25.25h5v5h-5zM75.25 15.25h5v5h-5zM75.25 10.25h5v5h-5zM90.25 30.25h5v5h-5zM95.25 25.25h5v5h-5zM95.25 15.25h5v5h-5zM95.25 10.25h5v5h-5zM80.25 30.25h5v5h-5zM85.25 25.25h5v5h-5zM85.25 15.25h5v5h-5zM130.25 25.25h5v5h-5zM130.25 15.25h5v5h-5zM130.25 10.25h5v5h-5zM140.25 30.25h5v5h-5zM145.25 25.25h5v5h-5zM145.25 15.25h5v5h-5zM145.25 10.25h5v5h-5zM155.25 15.25h5v5h-5zM155.25 10.25h5v5h-5zM135.25 30.25h5v5h-5zM140.25 40.25h5v5h-5zM135.25 40.25h5v5h-5zM105.25 15.25h5v5h-5zM105.25 25.25h5v5h-5zM120.25 10.25h5v5h-5zM120.25 15.25h5v5h-5zM25.25 20.25h5v5h-5zM40.25 20.25h5v5h-5zM50.25 20.25h5v5h-5zM65.25 20.25h5v5h-5zM75.25 20.25h5v5h-5zM95.25 20.25h5v5h-5zM85.25 20.25h5v5h-5zM130.25 20.25h5v5h-5zM145.25 20.25h5v5h-5zM105.25 20.25h5v5h-5zM120.25 20.25h5v5h-5zM120.25 25.25h5v5h-5zM120.25 30.25h5v5h-5zM110.25 10.25h5v5h-5zM115.25 10.25h5v5h-5zM110.25 30.25h5v5h-5zM115.25 30.25h5v5h-5zM265.25 15.25h5v5h-5zM265.25 25.25h5v5h-5zM280.25 15.25h5v5h-5zM265.25 20.25h5v5h-5zM270.25 20.25h5v5h-5zM275.25 20.25h5v5h-5zM280.25 30.25h5v5h-5zM270.25 10.25h5v5h-5zM275.25 10.25h5v5h-5zM270.25 30.25h5v5h-5zM275.25 30.25h5v5h-5zM145.25 40.25h5v5h-5zM145.25 35.25h5v5h-5zM145.25 30.25h5v5h-5zM165.25 15.25h5v5h-5zM180.25 10.25h5v5h-5zM180.25 25.25h5v5h-5zM170.25 10.25h5v5h-5zM175.25 10.25h5v5h-5zM170.25 20.25h5v5h-5zM175.25 20.25h5v5h-5zM175.25 30.25h5v5h-5zM165.25 30.25h5v5h-5zM170.25 30.25h5v5h-5zM245.25 10.25h5v5h-5zM245.25 15.25h5v5h-5zM245.25 20.25h5v5h-5zM245.25 25.25h5v5h-5zM245.25 30.25h5v5h-5zM250.25 5.25h5v5h-5zM255.25 10.25h5v5h-5zM240.25 20.25h5v5h-5zM250.25 20.25h5v5h-5zM205.25.25h5v5h-5zM205.25 5.25h5v5h-5zM205.25 10.25h5v5h-5zM205.25 15.25h5v5h-5zM205.25 20.25h5v5h-5zM205.25 25.25h5v5h-5zM205.25 30.25h5v5h-5zM210.25 30.25h5v5h-5zM215.25 30.25h5v5h-5zM220.25 30.25h5v5h-5zM230.25 10.25h5v5h-5zM230.25 25.25h5v5h-5zM230.25 30.25h5v5h-5zM230.25 20.25h5v5h-5z"/></svg>